<?xml version="1.0" encoding="utf-8"?>
<!DOCTYPE svg PUBLIC "-//W3C//DTD SVG 20010904//EN" "http://www.w3.org/TR/2001/REC-SVG-20010904/DTD/svg10.dtd">
<svg version="1.0" width="56.25pt" height="56.25pt" viewBox="0 0 56.25 56.25" preserveAspectRatio="xMidYMid meet" xmlns="http://www.w3.org/2000/svg">
  <g transform="translate(0,56.25)scale(.075,.075)" fill="#F000CD">
    <path id="path1" d="M 0 -375 l 0 375 375 0 375 0 0 -375 0 -375 -375 0 -375 0 0 375 z m 615 -291 c 43 18 55 42 55 106 0 78 19 140 46 152 32 15 32 51 0 66 -27 12 -46 73 -46 147 0 60 -22 100 -61 114 -49 17 -431 15 -473 -3 -39 -16 -53 -47 -59 -136 -5 -74 -22 -117 -49 -125 -24 -8 -24 -52 0 -60 27 -8 44 -51 49 -125 6 -87 20 -120 57 -136 45 -19 434 -19 481 0 z M 280 -376 l 0 146 64 0 c 86 0 122 -14 135 -53 10 -27 8 -35 -14 -67 -29 -42 -31 -53 -10 -70 21 -18 19 -54 -6 -76 -15 -14 -40 -20 -95 -22 l -74 -4 0 146 z m 135 -112 c 22 10 26 17 23 47 -3 34 -5 36 -49 45 -66 13 -79 5 -79 -47 0 -24 3 -47 7 -50 10 -11 70 -8 98 5 z m 26 140 c 15 23 10 64 -10 82 -14 12 -32 16 -67 14 l -49 -3 -3 -44 c -5 -69 0 -75 65 -68 31 3 60 12 64 19 z " />
  </g>
</svg>