<?xml version="1.0" encoding="utf-8"?>
<!DOCTYPE svg PUBLIC "-//W3C//DTD SVG 20010904//EN" "http://www.w3.org/TR/2001/REC-SVG-20010904/DTD/svg10.dtd">
<svg version="1.0" width="56.25pt" height="56.25pt" viewBox="0 0 56.25 56.25" preserveAspectRatio="xMidYMid meet" xmlns="http://www.w3.org/2000/svg">
  <g transform="translate(0,56.25)scale(.075,.075)" fill="#F000CD">
    <path id="path1" d="M 0 -375 l 0 375 375 0 375 0 0 -171 c 0 -155 -2 -170 -17 -167 -30 6 -55 64 -62 149 -5 63 -11 84 -26 95 -28 20 -502 20 -530 0 -15 -11 -21 -32 -26 -93 -7 -86 -30 -142 -60 -150 -27 -7 -26 -59 1 -68 31 -10 52 -61 59 -148 5 -61 11 -82 26 -93 15 -11 71 -14 267 -14 235 0 249 1 268 20 15 15 20 33 20 72 0 88 33 168 70 168 6 0 10 -65 10 -175 l 0 -175 -375 0 -375 0 0 375 z M 164 -602 c -6 4 -14 41 -18 82 -3 41 -15 92 -25 112 -18 37 -18 39 0 76 10 20 22 71 25 112 4 41 12 78 18 82 14 10 418 10 432 0 6 -4 14 -41 18 -82 3 -41 15 -92 25 -112 18 -37 18 -39 0 -75 -10 -21 -22 -72 -25 -113 -4 -41 -12 -78 -18 -82 -14 -10 -418 -10 -432 0 z m 300 93 c 21 16 26 29 26 63 0 23 -5 47 -11 53 -8 8 -5 17 10 32 14 14 21 34 21 59 0 75 -46 102 -178 102 l -72 0 0 -165 0 -165 89 0 c 74 0 92 3 115 21 z M 330 -436 c 0 33 3 36 28 36 37 0 65 -21 61 -46 -3 -15 -14 -20 -47 -22 l -42 -3 0 35 z M 330 -299 l 0 42 41 -6 c 88 -12 92 -69 5 -75 l -46 -3 0 42 z " />
  </g>
</svg>