<?xml version="1.0" encoding="utf-8"?>
<!DOCTYPE svg PUBLIC "-//W3C//DTD SVG 20010904//EN" "http://www.w3.org/TR/2001/REC-SVG-20010904/DTD/svg10.dtd">
<svg version="1.0" width="93pt" height="93pt" viewBox="0 0 93 93" preserveAspectRatio="xMidYMid meet" xmlns="http://www.w3.org/2000/svg">
  <g transform="translate(0,93)scale(.075,.075)" fill="#F000CD">
    <path id="path1" d="M 284 -1030 c -47 19 -61 53 -66 164 -7 128 -36 204 -87 225 -40 17 -40 35 0 52 50 20 78 93 88 229 7 102 10 114 35 138 l 26 27 350 0 350 0 26 -27 c 25 -24 28 -36 35 -138 10 -136 38 -209 88 -229 17 -8 31 -19 31 -26 0 -7 -14 -18 -31 -26 -51 -21 -80 -97 -87 -226 -5 -98 -7 -108 -33 -137 l -27 -31 -339 -2 c -186 -1 -348 2 -359 7 z m 714 68 c 6 15 13 65 15 112 6 105 20 151 58 194 35 41 36 46 4 76 -36 34 -65 136 -65 227 0 124 35 113 -379 113 l -358 0 -11 -22 c -6 -13 -13 -64 -15 -113 -6 -110 -19 -155 -58 -199 -16 -19 -29 -37 -29 -41 0 -4 13 -22 29 -41 38 -43 52 -89 58 -194 2 -47 9 -97 15 -112 l 10 -28 358 0 358 0 10 28 z M 474 -827 c -2 7 -3 109 -2 227 l 3 215 110 0 c 98 -1 115 -3 148 -24 86 -53 88 -161 2 -192 -41 -15 -45 -31 -10 -47 14 -6 33 -28 42 -48 17 -34 17 -37 -2 -71 -31 -57 -73 -73 -188 -73 -70 0 -99 4 -103 13 z m 226 57 c 12 12 20 33 20 55 0 58 -26 75 -115 75 l -75 0 0 -75 0 -75 75 0 c 62 0 79 4 95 20 z m 14 191 c 21 16 26 29 26 63 0 65 -23 80 -126 85 l -84 3 0 -86 0 -86 79 0 c 64 0 83 4 105 21 z " />
  </g>
</svg>